<?xml version="1.0" standalone="no"?>
<!DOCTYPE svg PUBLIC "-//W3C//DTD SVG 20010904//EN"
 "http://www.w3.org/TR/2001/REC-SVG-20010904/DTD/svg10.dtd">
<svg version="1.0" xmlns="http://www.w3.org/2000/svg"
 width="194.000000pt" height="194.000000pt" viewBox="0 0 194.000000 194.000000"
 preserveAspectRatio="xMidYMid meet">
<metadata>
Created by potrace 1.11, written by Peter Selinger 2001-2013
</metadata>
<g transform="translate(0.000000,194.000000) scale(0.100000,-0.100000)"
fill="#000000" stroke="none">
<path d="M775 1919 c-186 -40 -337 -119 -471 -246 -119 -114 -201 -242 -253
-398 -39 -118 -42 -138 -46 -281 -3 -129 9 -221 46 -334 110 -334 422 -597
769 -648 60 -9 241 -8 309 1 76 11 223 61 301 104 259 141 453 410 497 691 14
87 8 292 -10 370 -81 342 -311 598 -635 708 -125 42 -142 45 -297 48 -96 2
-151 -2 -210 -15z"/>
</g>
</svg>
